<?xml version="1.0" standalone="no"?>
<!DOCTYPE svg PUBLIC "-//W3C//DTD SVG 20010904//EN"
 "http://www.w3.org/TR/2001/REC-SVG-20010904/DTD/svg10.dtd">
<svg version="1.0" xmlns="http://www.w3.org/2000/svg"
 width="689.000000pt" height="689.000000pt" viewBox="0 0 689.000000 689.000000"
 preserveAspectRatio="xMidYMid meet">
<metadata>
Created by potrace 1.11, written by Peter Selinger 2001-2013
</metadata>
<g transform="translate(0.000000,689.000000) scale(0.100000,-0.100000)"
fill="#000000" stroke="none">
<path d="M3367 6884 c-1 -1 -60 -4 -132 -8 -71 -3 -141 -8 -155 -11 -14 -2
-45 -6 -70 -9 -128 -13 -348 -59 -530 -111 -703 -202 -1336 -640 -1791 -1240
-256 -338 -475 -788 -579 -1195 -25 -97 -67 -311 -75 -375 -3 -27 -8 -59 -10
-70 -26 -129 -27 -671 0 -845 2 -14 9 -59 15 -100 184 -1196 988 -2210 2113
-2666 200 -81 476 -164 630 -189 18 -3 55 -10 82 -15 28 -5 75 -12 105 -16 30
-3 63 -8 72 -9 137 -26 633 -25 813 1 22 3 51 7 65 9 14 2 45 7 70 10 25 3 52
8 60 10 8 2 31 7 50 10 19 3 90 19 158 36 551 135 1076 415 1497 799 186 170
289 287 503 570 98 129 283 467 361 658 84 207 163 460 187 602 2 14 9 45 14
70 10 46 13 66 26 155 3 28 8 59 10 70 26 141 25 713 -1 840 -2 11 -7 43 -10
70 -10 87 -54 296 -90 425 -98 354 -255 695 -469 1012 -42 64 -95 137 -106
148 -3 3 -26 32 -52 66 -119 155 -365 402 -533 535 -458 364 -997 612 -1532
705 -49 8 -99 17 -113 19 -14 3 -50 7 -80 11 -30 3 -66 7 -79 9 -55 9 -416 25
-424 19z m-42 -509 c1 -148 -1 -277 -3 -285 -2 -10 -14 -16 -35 -15 -29 1 -88
-5 -207 -20 -254 -33 -557 -125 -791 -240 -74 -36 -63 -40 -111 45 -14 25 -73
128 -132 229 -80 139 -103 187 -94 194 34 23 301 144 363 163 6 2 56 19 113
39 147 50 354 103 475 120 64 9 104 16 127 20 14 3 61 8 105 11 44 3 81 7 82
8 1 1 26 2 55 1 l53 0 0 -270z m420 260 c28 -2 66 -7 85 -10 19 -2 56 -7 81
-10 43 -5 62 -8 119 -20 14 -2 39 -7 55 -10 35 -5 187 -42 230 -55 201 -62
355 -121 518 -199 103 -49 107 -52 96 -74 -6 -12 -70 -124 -142 -248 l-131
-226 -110 52 c-204 97 -471 180 -671 209 -23 4 -50 8 -61 10 -12 3 -57 8 -100
12 -43 4 -90 8 -104 9 -14 2 -32 3 -40 4 -13 1 -15 38 -14 284 1 155 2 283 3
284 1 2 118 -5 186 -12z m-1968 -542 c21 -38 42 -76 48 -85 5 -9 17 -29 26
-45 55 -97 75 -132 96 -166 13 -21 28 -48 34 -60 5 -12 16 -33 24 -47 13 -22
13 -26 -1 -35 -43 -27 -228 -166 -280 -210 -155 -132 -354 -355 -461 -516
l-46 -69 -51 29 c-277 159 -431 251 -434 259 -2 8 49 91 90 147 158 211 202
261 377 435 148 146 281 256 446 369 50 33 91 61 92 61 1 0 18 -30 40 -67z
m3473 -4 c303 -206 625 -528 838 -839 35 -50 61 -97 59 -104 -3 -6 -17 -18
-33 -26 -15 -8 -123 -70 -239 -138 l-210 -122 -15 22 c-207 308 -431 536 -730
743 -30 21 -56 39 -58 40 -1 1 54 101 124 221 70 121 133 231 141 247 9 16 19
24 26 20 7 -3 50 -32 97 -64z m-1446 -1063 c210 -26 454 -114 643 -232 80 -50
113 -85 113 -120 0 -13 -34 -72 -74 -131 -41 -59 -118 -172 -172 -250 -159
-232 -166 -237 -266 -174 -191 120 -384 165 -593 137 -157 -21 -304 -96 -425
-215 -148 -146 -225 -309 -249 -522 -33 -307 84 -603 309 -781 190 -150 431
-196 728 -138 30 5 57 12 60 14 6 3 7 88 3 176 -1 9 -12 17 -28 18 -46 4 -111
49 -140 99 -26 45 -27 52 -27 192 -1 158 7 194 53 245 57 63 74 66 416 66 171
0 328 -3 350 -7 52 -8 127 -82 141 -138 8 -31 12 -1044 5 -1147 -4 -59 -210
-173 -431 -239 -103 -30 -105 -31 -262 -59 -197 -36 -476 -42 -618 -15 -14 3
-36 7 -50 10 -214 39 -459 144 -640 272 -85 62 -257 221 -320 298 -109 134
-221 337 -276 500 -106 317 -115 608 -29 959 30 123 133 347 220 476 93 138
221 276 350 377 224 175 544 305 810 330 33 3 62 7 63 8 6 5 283 -3 336 -9z
m-3159 -104 c17 -10 50 -30 75 -44 43 -24 166 -95 312 -180 l68 -39 -30 -58
c-108 -215 -211 -544 -236 -754 -4 -29 -8 -55 -10 -58 -3 -6 -17 -163 -18
-206 0 -22 -4 -23 -75 -23 -210 -2 -392 -2 -442 -1 l-55 1 2 48 c16 362 118
793 266 1122 40 91 101 210 107 210 3 0 20 -8 36 -18z m5685 -89 c171 -356
276 -739 306 -1118 3 -38 7 -87 9 -108 1 -20 -2 -40 -8 -44 -8 -5 -187 -6
-523 -3 -41 0 -41 0 -41 38 -1 53 -16 203 -28 262 -2 14 -7 41 -10 60 -30 188
-132 495 -225 679 l-30 60 48 27 c26 15 88 51 137 80 258 150 301 174 307 174
4 0 30 -48 58 -107z m-5539 -1509 c10 -3 16 -18 17 -47 15 -325 108 -673 267
-1001 l24 -50 -62 -36 c-34 -20 -127 -74 -207 -120 -80 -45 -161 -93 -182
-106 -43 -27 -41 -29 -92 74 -88 175 -182 436 -232 642 -2 8 -10 42 -18 75
-31 129 -61 353 -70 526 l-2 46 270 1 c149 0 278 -2 287 -4z m5853 -49 c-2
-48 -11 -155 -20 -222 -10 -78 -14 -110 -19 -133 -3 -14 -7 -41 -10 -60 -39
-233 -142 -552 -262 -802 l-56 -117 -46 25 c-25 14 -62 35 -81 46 -19 11 -102
59 -185 106 -198 113 -188 103 -161 155 99 186 215 548 242 752 3 28 8 59 10
70 2 11 7 61 10 110 6 77 10 117 13 121 1 1 128 1 284 0 l282 -1 -1 -50z
m-5361 -1347 c176 -251 398 -472 660 -656 l78 -54 -24 -42 c-26 -45 -35 -60
-127 -221 -35 -60 -68 -118 -75 -130 -24 -43 -57 -95 -61 -95 -9 0 -217 142
-234 160 -3 3 -23 18 -45 35 -22 16 -42 31 -45 34 -3 4 -39 35 -80 71 -101 88
-211 197 -301 300 -116 132 -299 381 -299 406 0 8 466 282 482 283 3 1 36 -41
71 -91z m4632 -49 l244 -140 -66 -97 c-187 -274 -453 -555 -708 -748 -90 -68
-229 -164 -238 -164 -3 0 -25 33 -48 73 -23 39 -49 83 -57 97 -9 14 -15 28
-14 33 1 4 -3 7 -8 7 -6 0 -10 4 -10 9 0 6 -29 59 -64 120 -36 61 -70 119 -76
130 -9 18 -3 25 52 63 254 172 541 459 701 701 21 31 40 57 43 57 3 0 114 -63
249 -141z m-3609 -818 c210 -103 535 -203 735 -226 26 -3 57 -8 70 -10 20 -4
175 -18 204 -18 6 0 10 -102 10 -285 l0 -285 -110 6 c-60 4 -121 9 -135 11
-14 2 -47 7 -75 10 -77 9 -264 45 -360 70 -192 50 -403 127 -591 217 -60 28
-110 53 -112 54 -4 3 278 495 283 495 2 0 38 -17 81 -39z m2495 -210 c77 -133
139 -244 137 -246 -2 -1 -51 -26 -110 -54 -371 -178 -767 -282 -1173 -307
l-100 -7 0 286 c0 280 0 286 20 285 25 -1 169 11 215 19 59 10 63 10 110 18
206 32 582 157 715 237 17 10 34 17 38 15 5 -1 71 -112 148 -246z"/>
</g>
</svg>
